<svg xmlns="http://www.w3.org/2000/svg" viewBox="0 0 60 60">
  <defs>
    <style>
      .cls-1 {
        fill: #4285f4;
      }
    </style>
  </defs>
  <title>Asset 1</title>
  <g id="Layer_2" data-name="Layer 2">
    <g id="Layer_1-2" data-name="Layer 1">
      <g>
        <path class="cls-1" d="M30,0A30,30,0,1,0,60,30,30,30,0,0,0,30,0ZM20.94,36.74a.88.88,0,0,1-.42.11.85.85,0,0,1-.83-.85V33.53h-.84A2.53,2.53,0,0,1,16.32,31V20.82a2.53,2.53,0,0,1,2.53-2.53H34.18a2.53,2.53,0,0,1,2.53,2.53V31a2.53,2.53,0,0,1-2.53,2.49H26.12a.86.86,0,0,0-.46.14L21,36.74Zm24.21,1a2.53,2.53,0,0,1-2.53,2.53h-.84v2.55a.86.86,0,0,1-.14.47.85.85,0,0,1-1.18.24l-4.85-3.24H27.3a2.53,2.53,0,0,1-2.53-2.53V36.28l1.61-1.06h7.8A4.23,4.23,0,0,0,38.4,31V25h4.27a2.53,2.53,0,0,1,2.48,2.58Z"/>
        <path class="cls-1" d="M28.26,27.59a.85.85,0,0,0-.85-.85H20.54a.85.85,0,0,0,0,1.69h6.87A.85.85,0,0,0,28.26,27.59Z"/>
        <path class="cls-1" d="M20.54,25H32.48a.85.85,0,1,0,0-1.69H20.54a.85.85,0,0,0,0,1.69Z"/>
      </g>
    </g>
  </g>
</svg>
